<svg version="1.0" xmlns="http://www.w3.org/2000/svg" preserveAspectRatio="xMidYMid meet" viewBox="98.5 305.07 1723 1309.93">

<g transform="translate(0.000000,1920.000000) scale(0.100000,-0.100000)" fill="#000000" stroke="none">
<path d="M1505 16134 c-181 -44 -362 -188 -443 -354 -23 -47 -50 -114 -59 -150 -17 -62 -18 -374 -18 -6030 0 -5656 1 -5968 18 -6030 52 -194 191 -368 357 -448 47 -23 114 -48 150 -56 58 -14 929 -16 8090 -16 7143 0 8032 2 8090 15 184 44 366 187 448 355 23 47 50 114 59 150 17 62 18 374 18 6030 0 4966 -2 5974 -13 6020 -8 30 -34 98 -59 150 -38 79 -59 107 -132 181 -70 70 -103 94 -171 127 -47 23 -114 48 -150 56 -58 14 -928 16 -8095 15 -6962 -1 -8038 -3 -8090 -15z m16151 -406 c64 -34 128 -105 148 -165 15 -42 16 -605 16 -5963 0 -5385 -1 -5921 -16 -5963 -22 -64 -91 -139 -156 -168 l-53 -24 -7995 0 -7995 0 -53 24 c-65 29 -134 104 -156 168 -15 42 -16 578 -16 5963 0 5358 1 5921 16 5963 18 53 82 130 128 154 17 9 49 22 71 29 32 10 1605 12 8025 11 l7985 -2 51 -27z"/>
<path d="M5636 14799 c-624 -60 -1230 -305 -1726 -699 -131 -104 -413 -384 -512 -510 -491 -622 -739 -1363 -715 -2130 35 -1081 579 -2051 1483 -2643 699 -458 1576 -628 2404 -467 1288 252 2314 1274 2569 2559 48 243 56 333 56 646 0 311 -11 428 -61 665 -133 626 -435 1181 -889 1635 -288 288 -616 514 -978 675 -327 144 -688 238 -1037 270 -134 12 -465 11 -594 -1z m650 -404 c675 -81 1322 -415 1771 -915 572 -635 834 -1459 727 -2290 -74 -576 -310 -1095 -701 -1540 -440 -501 -1049 -830 -1733 -937 -164 -26 -655 -26 -815 0 -517 83 -955 271 -1365 587 -125 96 -396 369 -491 495 -310 408 -496 844 -574 1345 -25 161 -31 550 -11 724 54 467 209 890 467 1274 607 905 1649 1386 2725 1257z"/>
<path d="M5835 13904 c-586 -34 -1114 -263 -1524 -659 -370 -358 -600 -793 -693 -1312 -31 -173 -33 -567 -5 -738 82 -491 291 -915 623 -1264 352 -370 802 -611 1314 -702 146 -27 488 -37 641 -20 454 52 868 223 1224 506 96 76 273 253 352 350 476 589 641 1347 452 2082 -202 789 -839 1442 -1624 1666 -234 67 -541 103 -760 91z m-95 -1342 l0 -937 -655 -655 c-645 -644 -655 -653 -675 -635 -11 10 -46 57 -79 104 -370 544 -449 1207 -215 1818 212 554 687 994 1258 1167 101 31 294 72 349 75 16 1 17 -50 17 -937z m595 906 c149 -29 324 -89 470 -162 594 -294 989 -846 1080 -1508 l6 -48 -875 0 -876 0 0 876 0 875 48 -6 c26 -4 92 -16 147 -27z m1550 -2165 c-50 -361 -197 -705 -422 -983 -82 -102 -250 -263 -353 -339 -447 -332 -1013 -459 -1555 -350 -276 56 -607 207 -803 367 l-44 35 658 658 659 659 933 0 933 0 -6 -47z"/>
<path d="M12619 14515 c-86 -27 -150 -129 -134 -214 19 -106 113 -179 217 -169 156 15 230 205 126 324 -56 63 -129 84 -209 59z"/>
<path d="M13436 14519 c-86 -20 -146 -98 -146 -188 0 -87 37 -146 115 -182 38 -18 100 -19 1499 -19 l1460 0 44 21 c116 57 146 207 60 305 -66 75 74 69 -1543 71 -868 1 -1466 -3 -1489 -8z"/>
<path d="M12619 13125 c-86 -27 -150 -129 -134 -214 12 -65 50 -117 107 -145 64 -32 108 -33 174 -2 58 27 88 63 105 127 40 148 -103 280 -252 234z"/>
<path d="M13421 13125 c-88 -28 -135 -102 -129 -201 3 -52 9 -70 35 -101 16 -21 45 -47 64 -58 34 -20 52 -20 1509 -20 l1475 0 40 21 c22 11 53 40 70 63 25 36 30 52 30 104 0 82 -26 132 -90 172 l-48 30 -1456 2 c-1207 1 -1463 -1 -1500 -12z"/>
<path d="M12592 11725 c-122 -62 -146 -214 -48 -311 69 -70 154 -80 243 -28 48 28 93 107 93 164 0 58 -45 136 -95 165 -66 39 -129 42 -193 10z"/>
<path d="M13400 11728 c-70 -36 -103 -86 -108 -162 -7 -105 48 -181 148 -206 32 -8 457 -10 1490 -8 l1445 3 47 27 c65 39 103 116 95 191 -8 64 -47 122 -102 151 -40 21 -41 21 -1505 24 l-1465 2 -45 -22z"/>
<path d="M15194 9759 c-18 -5 -395 -318 -943 -784 l-913 -776 -32 19 c-17 10 -422 261 -901 557 -478 296 -884 544 -902 551 -45 19 -111 17 -158 -5 -57 -27 -1958 -1931 -1980 -1983 -53 -130 43 -278 180 -278 80 0 57 -21 1006 927 l907 906 73 -45 c41 -25 436 -269 879 -544 443 -274 825 -509 849 -521 55 -28 132 -31 181 -5 40 20 1948 1639 1980 1679 27 35 43 99 35 142 -23 125 -138 196 -261 160z"/>
<path d="M14771 7990 c-85 -18 -173 -89 -210 -169 -14 -33 -16 -180 -21 -1536 l-5 -1500 -227 -3 -228 -2 0 949 c0 927 0 952 -20 1004 -27 73 -79 130 -148 164 l-57 28 -500 0 -500 0 -57 -28 c-61 -30 -105 -74 -140 -140 l-23 -42 -3 -967 -2 -968 -225 0 -225 0 -2 1223 -3 1222 -22 47 c-30 66 -95 132 -156 159 l-52 24 -495 0 c-485 0 -496 0 -541 -21 -63 -30 -123 -86 -151 -142 l-23 -47 -5 -1230 -5 -1230 -227 -3 -227 -2 -3 697 -3 698 -23 42 c-35 66 -79 110 -140 140 l-57 28 -500 0 -500 0 -57 -28 c-69 -34 -121 -91 -148 -164 -19 -52 -20 -77 -20 -733 l0 -680 -192 0 c-176 0 -195 -2 -236 -21 -137 -67 -137 -281 0 -348 l44 -21 3968 0 c3879 0 3968 0 4004 19 147 76 148 277 1 351 -34 18 -59 20 -228 20 l-191 0 -2 1493 -3 1492 -24 52 c-27 61 -93 126 -159 156 -46 21 -58 22 -517 24 -258 1 -490 -3 -514 -7z m819 -1800 l0 -1410 -330 0 -330 0 0 1410 0 1410 330 0 330 0 0 -1410z m-3810 -270 l0 -1140 -330 0 -330 0 0 1140 0 1140 330 0 330 0 0 -1140z m1900 -265 l0 -875 -327 2 -328 3 -3 873 -2 872 330 0 330 0 0 -875z m-3802 -267 l-3 -603 -327 -3 -328 -2 0 605 0 605 330 0 330 0 -2 -602z"/>
<path d="M2795 6153 c-100 -52 -141 -161 -96 -258 36 -78 95 -115 182 -115 153 0 244 166 163 297 -51 83 -169 119 -249 76z"/>
<path d="M3592 6149 c-142 -70 -143 -277 -2 -349 39 -20 61 -20 1510 -20 1449 0 1471 0 1510 20 141 72 139 280 -3 349 l-43 21 -1465 0 -1464 0 -43 -21z"/>
<path d="M2795 4764 c-160 -83 -147 -309 21 -364 86 -29 195 13 233 88 39 77 36 142 -12 213 -45 69 -169 101 -242 63z"/>
<path d="M3594 4761 c-80 -37 -127 -136 -104 -222 16 -59 54 -107 104 -130 39 -18 97 -19 1506 -19 1409 0 1467 1 1506 19 50 23 88 71 104 130 23 86 -24 185 -104 222 -39 18 -97 19 -1506 19 -1409 0 -1467 -1 -1506 -19z"/>
</g>
</svg>