<svg version="1.0" xmlns="http://www.w3.org/2000/svg" preserveAspectRatio="xMidYMid meet" viewBox="7.1 7.28 425.47 425.62">

<g transform="translate(0.000000,440.000000) scale(0.100000,-0.100000)" fill="#000000" stroke="none">
<path d="M2630 4320 c-693 -95 -1215 -608 -1316 -1292 -12 -85 -15 -151 -11 -268 9 -240 52 -413 155 -620 31 -63 58 -118 60 -121 1 -4 -12 -12 -30 -19 -21 -8 -273 -253 -706 -684 -611 -610 -674 -676 -692 -724 -24 -64 -25 -130 -4 -203 14 -47 30 -68 133 -170 102 -103 123 -119 170 -133 70 -20 134 -20 197 0 45 15 110 78 721 687 459 458 677 682 689 709 9 21 20 37 23 36 3 -2 58 -29 121 -60 129 -64 227 -98 374 -130 137 -30 445 -32 581 -5 618 125 1075 578 1206 1197 32 150 33 439 1 586 -132 617 -586 1070 -1196 1195 -115 24 -369 34 -476 19z m452 -433 c686 -178 1032 -924 723 -1563 -78 -162 -218 -324 -365 -424 -91 -62 -232 -126 -345 -157 -92 -26 -114 -28 -280 -28 -136 1 -196 5 -248 18 -421 106 -718 399 -829 817 -25 95 -35 324 -19 430 56 363 297 685 624 835 176 80 307 106 502 101 107 -4 163 -10 237 -29z"/>
<path d="M2407 3095 c-199 -195 -372 -370 -384 -387 -38 -54 -25 -110 33 -149 56 -36 90 -25 177 59 l57 56 0 -247 0 -247 200 0 200 0 0 148 c0 81 4 153 8 160 6 9 36 12 113 10 l104 -3 3 -157 3 -158 199 0 200 0 0 252 0 252 63 -61 c69 -67 94 -83 131 -83 53 0 116 88 102 143 -3 12 -173 190 -378 395 l-374 372 -47 0 -48 0 -362 -355z"/>
</g>
</svg>