<svg version="1.0" xmlns="http://www.w3.org/2000/svg" preserveAspectRatio="xMidYMid meet" viewBox="17.2 51.25 477.62 409.63">

<g transform="translate(0.000000,512.000000) scale(0.100000,-0.100000)" fill="#000000" stroke="none">
<path d="M2883 4599 c-210 -35 -391 -194 -465 -408 -19 -54 -23 -87 -23 -181 0 -99 4 -125 27 -187 l26 -73 -27 0 c-15 0 -54 -7 -86 -15 -173 -44 -320 -162 -393 -315 -51 -107 -66 -184 -59 -303 7 -115 34 -196 99 -293 84 -126 222 -219 372 -251 174 -37 377 17 507 134 l39 35 0 -686 0 -686 85 0 85 0 0 686 0 685 48 -39 c239 -199 578 -186 797 32 117 117 178 258 178 416 1 164 -51 296 -165 416 -88 92 -204 155 -323 175 -61 11 -75 16 -71 29 42 126 47 157 43 265 -6 128 -27 202 -89 296 -130 202 -368 308 -605 268z m178 -169 c115 -21 235 -105 293 -205 41 -69 59 -149 54 -240 -4 -75 -9 -91 -72 -226 -37 -79 -70 -150 -73 -156 -4 -10 12 -13 58 -13 35 0 115 -5 178 -10 137 -11 212 -42 295 -120 169 -160 171 -437 4 -603 -165 -166 -431 -167 -593 -3 -28 29 -85 110 -129 184 -43 73 -82 134 -86 137 -4 3 -46 -60 -93 -138 -123 -205 -203 -273 -356 -299 -166 -28 -347 57 -434 205 -88 150 -72 349 39 484 89 109 191 148 412 159 84 4 152 10 152 14 0 4 -29 68 -64 141 -35 74 -69 155 -75 181 -51 216 89 443 308 500 78 20 110 21 182 8z"/>
<path d="M683 1368 l-511 -853 1194 -3 c657 -1 1731 -1 2388 0 l1194 3 -511 853 -512 852 -342 0 -343 0 0 -85 0 -85 294 0 293 0 402 -669 c220 -368 404 -676 407 -685 6 -15 -181 -16 -2076 -16 -1895 0 -2082 1 -2076 16 3 9 187 317 407 685 l402 669 718 0 719 0 0 85 0 85 -768 0 -767 0 -512 -852z"/>
</g>
</svg>