<svg version="1.0" xmlns="http://www.w3.org/2000/svg" preserveAspectRatio="xMidYMid meet" viewBox="640.5 670.12 3838.98 3718.38">

<g transform="translate(0.000000,5120.000000) scale(0.100000,-0.100000)" fill="#000000" stroke="none">
<path d="M25365 44480 c-225 -49 -407 -146 -585 -314 -250 -237 -1655 -1569 -1750 -1661 -63 -61 -333 -317 -600 -570 -651 -618 -4235 -4021 -5175 -4914 l-530 -504 -3 1752 -2 1751 -2890 0 -2890 0 0 -4498 0 -4498 -642 -610 c-353 -335 -919 -872 -1258 -1194 -339 -322 -1004 -954 -1479 -1405 -922 -876 -948 -903 -1036 -1080 -88 -178 -120 -318 -120 -520 0 -325 107 -586 335 -816 393 -398 1012 -460 1473 -147 82 56 90 63 837 773 752 714 2231 2118 3565 3385 484 459 1150 1092 1480 1405 330 314 1541 1464 2690 2555 1150 1091 2356 2237 2680 2545 1121 1065 1786 1696 3275 3110 822 781 1801 1710 2174 2065 374 355 682 645 686 645 6 0 520 -486 1960 -1855 217 -207 935 -888 1595 -1515 1441 -1368 2037 -1934 2570 -2440 220 -210 1073 -1019 1895 -1800 1508 -1432 2372 -2252 3480 -3305 333 -316 1001 -951 1485 -1410 929 -882 2440 -2317 3565 -3385 371 -353 698 -662 727 -688 234 -206 564 -311 876 -278 277 30 514 144 707 340 168 170 266 350 316 581 23 106 25 342 5 445 -34 174 -111 346 -213 484 -65 86 -16 40 -4688 4476 -938 890 -2148 2040 -2690 2554 -542 515 -1433 1361 -1980 1881 -547 519 -1256 1192 -1575 1495 -319 303 -1079 1025 -1690 1605 -610 580 -1328 1262 -1595 1515 -465 442 -2592 2462 -3537 3359 -249 236 -485 454 -525 484 -96 72 -270 156 -394 189 -138 36 -393 43 -529 13z"/>
<path d="M25500 38924 c-57 -11 -129 -38 -189 -71 -61 -34 -126 -92 -451 -408 -69 -67 -357 -344 -640 -616 -2288 -2198 -4707 -4523 -4810 -4624 -69 -66 -474 -456 -900 -866 -702 -675 -2629 -2527 -5070 -4873 -503 -484 -977 -939 -1053 -1012 -148 -142 -210 -224 -248 -325 l-24 -64 -3 -9118 c-2 -8042 0 -9126 13 -9183 46 -198 201 -364 400 -427 l70 -22 4515 0 4515 0 5 5525 c5 5106 6 5528 22 5566 67 168 159 272 303 342 127 61 -158 57 3645 57 3803 0 3518 4 3645 -57 144 -70 236 -174 303 -342 16 -38 17 -460 22 -5566 l5 -5525 4515 0 4515 0 70 22 c199 63 354 229 400 427 13 57 15 1134 13 9128 l-3 9063 -27 74 c-47 129 -92 183 -338 403 -124 110 -520 487 -880 837 -902 876 -5172 5025 -7480 7266 -1048 1017 -2065 2005 -2260 2195 -1519 1480 -2138 2076 -2193 2111 -85 55 -172 80 -287 84 -52 2 -106 1 -120 -1z"/>
</g>
</svg>